<svg aria-hidden="true" style="position:absolute;width:0;height:0" xmlns="http://www.w3.org/2000/svg" overflow="hidden"><defs><symbol id="icon-Campfire" viewBox="0 0 29 32"><path d="M26.908 21.81c-.347-.833-.826-1.654-1.527-2.601-1.767-2.379-2.306-7.683-2.312-7.733a.634.634 0 00-.413-.541.583.583 0 00-.635.184c-2.108 2.525-1.222 6.423-.743 7.982.132.426.276.928.377 1.437.779 4.115-.725 5.978-1.078 6.353-.341.102-.575.051-.791-.197-.743-.871-.988-3.727-.641-7.447a8.127 8.127 0 00-.048-2.073c-.733-4.573-3.419-7.506-4.102-8.535C13.114 5.663 12.923.708 12.917.664a.628.628 0 00-.329-.547.564.564 0 00-.605.045C8.845 2.445 9.114 7.946 9.552 11.018c.102.712.299 1.437.641 2.353 1.216 3.275-.24 7.504-.252 7.543s-.024.07-.03.108c-.186 1.043-.497 1.666-.844 1.666a.377.377 0 01-.114-.019c-.425-.095-.647-.579-.653-.998-.024-5.425-5.109-7.25-5.162-7.269a.572.572 0 00-.635.191.66.66 0 00-.084.7c.06.134.252.719.12 2.786a25.288 25.288 0 01-.94 5.457C.389 27.759.581 31.759.593 31.95c.93 10.831 15.478 12.729 24.112 6.627.946-.668 1.719-1.431 2.288-2.27 3.186-4.706 1.312-11.098-.084-14.494zM4.778 32.157c.018.35-.234.649-.563.668h-.036c-.317 0-.581-.261-.599-.598a24.497 24.497 0 01.024-2.957.62.62 0 01.641-.592c.329.025.581.331.557.68a21.946 21.946 0 00-.024 2.798zm.294-5.634a.61.61 0 01-.593.56c-.024 0-.048 0-.078-.006-.323-.045-.557-.356-.521-.706l.287-2.455a.614.614 0 01.671-.553c.329.045.563.363.521.712l-.287 2.449zM22.856 8.746c-.327-.054-.551-.378-.5-.725.037-.258.254-1.581.841-2.246.226-.256.604-.27.847-.029s.254.643.027.899c-.249.282-.46 1.088-.531 1.57-.051.343-.352.584-.683.531zM1.022 11.914c-.115-.473-.399-1.253-.673-1.508-.249-.232-.274-.633-.056-.897s.596-.292.845-.059c.645.601.983 1.895 1.044 2.148.082.34-.111.686-.431.774-.327.087-.648-.123-.729-.457z"/></symbol></defs></svg>